<svg xmlns="http://www.w3.org/2000/svg" xmlns:xlink="http://www.w3.org/1999/xlink"><symbol id="cart" viewBox="0 0 21 18">
<path opacity="0.2" d="M20.1884 6.85716H16.6377L13.1884 0.380944C12.9855 -8.61287e-06 12.5797 -0.0952351 12.1739 0.0952412C11.7681 0.285717 11.6667 0.66667 11.8696 1.04762L15.0145 6.85716H5.7826L8.92753 1.04762C9.13043 0.66667 8.92754 0.285717 8.6232 0.0952412C8.2174 -0.0952351 7.8116 0.0952295 7.6087 0.380944L4.1594 6.85716H0.811583C0.405785 6.85716 0 7.14286 0 7.61905C0 8 0.304336 8.38094 0.811583 8.38094H1.01449L1.92753 11.2381C1.72463 11.3333 1.62317 11.5238 1.62317 11.8095C1.62317 12.1905 1.92753 12.4762 2.33332 12.4762L4.05797 18H16.942L18.6667 12.4762C19.0725 12.4762 19.3768 12.1905 19.3768 11.8095C19.3768 11.619 19.2754 11.3333 19.0725 11.2381L19.9855 8.38094H20.1884C20.5942 8.38094 21 8.09524 21 7.61905C21 7.14286 20.5942 6.85716 20.1884 6.85716ZM15.6232 16.4762H5.07247L3.85506 12.381H16.942L15.6232 16.4762ZM17.2464 10.9524H3.34782L2.53623 8.28573H18.058L17.2464 10.9524Z" fill="black"/>
</symbol><symbol id="flag" viewBox="0 0 47 82">
<path d="M7.76611 4.76697V43.3337L47 24.0007L7.76611 4.76697ZM0 81.9004V0.900391H3.83261V81.9004H0Z" fill="#63D1BB"/>
<path d="M3.83262 1H0V82H3.83262V1Z" fill="#231F20"/>
</symbol><symbol id="htmlacademy" viewBox="0 0 28 35">
<path d="M13.9689 0.0444336H13.8689L0.368896 1.44443V26.1444L13.8689 34.1444L27.2689 26.1444V1.44443L13.9689 0.0444336ZM25.3689 12.1444L13.8689 5.34443V5.24443H13.7689L13.6689 5.14443V5.24443L2.2689 12.1444V3.14443L13.7689 1.94443L25.3689 3.14443V12.1444ZM13.7689 6.84443L25.2689 13.5444L20.7689 16.1444L13.6689 11.9444V13.3444L19.5689 16.8444L18.6689 17.3444L13.6689 14.3444V15.7444L17.4689 18.0444L16.6689 18.5444L13.6689 16.7444V18.1444L15.5689 19.2444L13.7689 20.3444L2.3689 13.6444L13.7689 6.84443ZM2.2689 15.1444L13.6689 21.9444V22.9444L5.7689 18.2444V19.6444L13.7689 24.4444V25.5444L5.7689 20.8444V22.2444L13.7689 27.0444L21.8689 22.1444V16.9444L25.2689 14.9444V24.9444L13.7689 31.8444L2.2689 25.0444V15.1444Z" fill="#63D1BB"/>
</symbol><symbol id="icon1" viewBox="0 0 33 38">
<path d="M16.5 38C25.575 38 33 30.6452 33 21.6559C23.925 21.6559 16.5 28.9086 16.5 38ZM4.74375 16.6505C4.74375 19.2043 6.80625 21.1452 9.28125 21.1452C10.2094 21.1452 11.1375 20.8387 11.8594 20.328V20.6344C11.8594 23.1882 13.9219 25.129 16.3969 25.129C18.975 25.129 20.9344 23.086 20.9344 20.6344V20.328C21.6562 20.8387 22.5844 21.1452 23.5125 21.1452C26.0906 21.1452 28.05 19.1021 28.05 16.6505C28.05 14.8118 27.0188 13.2796 25.4719 12.5645C27.0188 11.8495 28.05 10.3172 28.05 8.47849C28.05 5.92473 25.9875 3.98387 23.5125 3.98387C22.5844 3.98387 21.6562 4.29032 20.9344 4.80107V4.49462C20.9344 1.94086 18.8719 0 16.3969 0C13.8187 0 11.8594 2.04301 11.8594 4.49462V4.80107C11.1375 4.29032 10.2094 3.98387 9.28125 3.98387C6.70312 3.98387 4.74375 6.02688 4.74375 8.47849C4.74375 10.3172 5.775 11.8495 7.32188 12.5645C5.87813 13.2796 4.74375 14.8118 4.74375 16.6505ZM16.5 7.96774C19.0781 7.96774 21.0375 10.0108 21.0375 12.4624C21.0375 15.0161 18.975 16.957 16.5 16.957C13.9219 16.957 11.9625 14.914 11.9625 12.4624C11.9625 10.0108 13.9219 7.96774 16.5 7.96774ZM0 21.6559C0 30.6452 7.425 38 16.5 38C16.5 28.9086 9.075 21.6559 0 21.6559Z" fill="#63D1BB"/>
</symbol><symbol id="icon2" viewBox="0 0 35 34">
<path d="M0.305558 13.9528C-0.101853 16.0303 -0.101853 18.1079 0.305558 20.1854L4.48152 17.0196L0.305558 13.9528Z" fill="#63D1BB"/>
<path d="M24.852 1.586C19.9631 -0.590493 14.2593 -0.590493 9.26855 1.98172L16.9075 7.52187L24.852 1.586Z" fill="#63D1BB"/>
<path d="M34.528 13.062L29.6391 16.7225L34.6299 20.3829C35.1391 18.0086 35.1391 15.4364 34.528 13.062Z" fill="#63D1BB"/>
<path d="M9.37048 32.057C14.2594 34.5303 20.2687 34.7281 25.3614 32.1559L17.1113 26.1211L9.37048 32.057Z" fill="#63D1BB"/>
<path d="M8.04638 14.2488L1.73151 9.698C1.42595 10.3905 1.12039 11.083 0.916687 11.7756L6.31488 15.7328L8.04638 14.2488Z" fill="#63D1BB"/>
<path d="M18.9446 24.8349L27.3984 30.9686C27.7039 30.7707 28.0095 30.5729 28.2132 30.375C28.5187 30.1772 28.8243 29.8804 29.1298 29.5836L20.6761 23.4498L18.9446 24.8349Z" fill="#63D1BB"/>
<path d="M11.6112 11.5781L4.07415 6.13684C3.56488 6.6315 3.15747 7.22509 2.75006 7.81867L9.7779 12.9631L11.6112 11.5781Z" fill="#63D1BB"/>
<path d="M22.5094 22.1635L30.7595 28.1983C31.2687 27.7036 31.6761 27.11 32.0836 26.5165L24.2409 20.7784L22.5094 22.1635Z" fill="#63D1BB"/>
<path d="M15.176 8.90696L7.33336 3.16895C7.12966 3.26788 6.92595 3.46574 6.72225 3.56467C6.31484 3.86146 5.90743 4.15826 5.60187 4.55398L13.4445 10.1931L15.176 8.90696Z" fill="#63D1BB"/>
<path d="M26.0743 19.3936L33.204 24.538C33.5095 23.8455 33.8151 23.2519 34.1206 22.5594L27.9076 18.0085L26.0743 19.3936Z" fill="#63D1BB"/>
<path d="M26.8891 2.67419L0.916687 22.3615C1.12039 23.054 1.42595 23.7466 1.73151 24.4391L28.7225 3.9603C28.2132 3.46564 27.6021 3.06992 26.8891 2.67419Z" fill="#63D1BB"/>
<path d="M31.2688 6.53234C30.9632 6.13661 30.6577 5.74089 30.3521 5.44409L2.85187 26.2197C3.05557 26.7143 3.36113 27.11 3.66669 27.4068C3.76854 27.6047 3.97225 27.8026 4.0741 27.9015L31.778 7.12592C31.5743 6.92806 31.4725 6.7302 31.2688 6.53234Z" fill="#63D1BB"/>
<path d="M32.8984 8.90674L5.70374 29.4844C6.213 29.9791 6.82412 30.4738 7.43523 30.8695L33.9169 10.8854C33.6114 10.1928 33.3058 9.50033 32.8984 8.90674Z" fill="#63D1BB"/>
</symbol><symbol id="icon3" viewBox="0 0 47 27">
<path d="M43.0665 0H3.93347C1.71459 0 0 1.68132 0 3.85714V23.1429C0 25.3187 1.71459 27 3.93347 27H43.0665C45.2854 27 47 25.3187 47 23.1429V3.85714C47 1.78022 45.1845 0 43.0665 0ZM3.02575 24.7253V2.76923H43.5708V24.7253H3.02575Z" fill="#63D1BB"/>
<path d="M6.95926 20.8683H39.6374V6.62659H6.95926V20.8683ZM23.5 8.50571C26.4249 8.50571 28.8455 10.8793 28.8455 13.7475C28.8455 16.6156 26.4249 18.9892 23.5 18.9892C20.5751 18.9892 18.1545 16.6156 18.1545 13.7475C18.1545 10.7804 20.5751 8.50571 23.5 8.50571Z" fill="#63D1BB"/>
</symbol><symbol id="icon4" viewBox="0 0 55 23">
<path d="M40.9467 5.75002C37.307 4.75864 33.0607 4.06466 28.41 4.06466C25.478 4.06466 22.8493 4.26294 20.625 4.65949L13.75 0H0.10114L5.9651 6.14656H14.4577C9.80697 7.73277 7.58272 9.61639 7.58272 9.61639V13.3836C7.58272 13.3836 9.90811 15.2672 14.5588 16.8534H5.86396L0 23H13.6489L20.5239 18.3405C22.8492 18.7371 25.3768 18.9354 28.3088 18.9354C32.8584 18.9354 37.1048 18.2414 40.8456 17.25C39.6324 15.4655 38.9246 13.5819 38.9246 11.4009C39.0257 9.4181 39.8345 7.5345 40.9467 5.75002Z" fill="#63D1BB"/>
<path d="M44.4853 6.74121C43.1709 8.32742 42.4632 9.91361 42.4632 11.4998C42.4632 13.086 43.1709 14.6722 44.4853 16.2585C50.9558 14.0774 55 11.4998 55 11.4998C55 11.4998 50.9558 8.92224 44.4853 6.74121Z" fill="#63D1BB"/>
</symbol><symbol id="icon5" viewBox="0 0 34 27">
<path d="M34 8.44964C34 3.78777 29.9818 0 25.0364 0C21.5333 0 18.5455 1.94245 17 4.66187C15.5576 1.94245 12.4667 0 8.96364 0C4.01818 0 0 3.78777 0 8.44964C0 17.2878 15.1455 27 17 27C18.9576 27 34 17.3849 34 8.44964Z" fill="#63D1BB"/>
</symbol><symbol id="icon6" viewBox="0 0 33 32">
<path d="M3.02752 32H15.6422V18.2716H3.02752V32ZM31.3853 8.69136H24.0183C24.5229 8.39506 25.0275 8.19753 25.4312 7.90123C27.0459 6.81481 27.8532 5.33333 27.8532 3.95062C27.8532 2.76543 27.2477 1.77777 26.4404 1.08641C25.633 0.395053 24.5229 0 23.4128 0C22.2018 0 20.9908 0.395053 20.0826 1.08641C18.5688 2.07406 17.4587 3.55555 16.6514 5.1358C16.6514 5.23456 16.5505 5.33333 16.5505 5.33333C16.2477 4.74073 15.945 4.14814 15.5413 3.55555C14.8349 2.56789 14.0275 1.679 13.0183 1.08641C12.0092 0.493818 10.8991 0 9.68807 0C8.47706 0 7.36697 0.49383 6.45871 1.28395C5.65137 2.07408 5.04587 3.16049 5.04587 4.34567C5.04587 5.03703 5.2477 5.82715 5.65137 6.51851C6.25687 7.4074 7.06422 8.09877 8.27523 8.69136H1.61467C0.706413 8.69136 0 9.38271 0 10.2716V16.0988H15.5413V8.69136H17.4587V16.0988H33V10.2716C33 9.38271 32.2936 8.69136 31.3853 8.69136ZM8.88073 6.41975C8.27522 6.02469 7.87155 5.62962 7.66972 5.33333C7.46788 4.93826 7.36696 4.64197 7.36696 4.34567C7.36696 3.85184 7.56881 3.35802 8.0734 2.86419C8.47707 2.46913 9.08256 2.17284 9.68807 2.17284C10.3945 2.17284 11.1009 2.37036 11.7064 2.86419C12.7156 3.55555 13.7248 4.64196 14.3303 6.02468C14.633 6.71604 14.9358 7.4074 15.1376 8.09876C12.0092 7.80246 9.99082 7.11111 8.88073 6.41975ZM19.4771 4.8395C20.0826 4.04938 20.6881 3.35802 21.3945 2.96296C22.1009 2.46914 22.8073 2.27161 23.4128 2.27161C24.0183 2.27161 24.5229 2.46914 24.9266 2.76543C25.3303 3.06173 25.5321 3.45679 25.5321 3.95062C25.5321 4.44444 25.2294 5.23456 24.0183 6.02468C22.9083 6.8148 20.8899 7.7037 17.8624 8.29629C18.1651 7.1111 18.7706 5.82715 19.4771 4.8395ZM17.4587 32H30.0734V18.2716H17.4587V32Z" fill="#63D1BB"/>
</symbol><symbol id="interior" viewBox="0 0 41 62">
<g opacity="0.5">
<path d="M15.5024 37.7564C15.1965 38.75 15.2985 39.9423 15.5024 41.3333C16.0124 43.9166 17.2363 47.2949 17.9502 50.9711H23.1517C23.8656 47.3942 25.0895 44.016 25.7014 41.3333C26.0074 39.9423 26.0074 38.6506 25.7014 37.7564C25.3955 36.8622 24.7835 36.1666 23.6616 35.4711H17.5422C16.3184 36.1666 15.7064 36.8622 15.5024 37.7564Z" fill="#149080"/>
<path d="M27.5373 57.6282H13.4627C12.1368 57.6282 11.1169 58.6218 11.1169 59.8141V62H13.4627H27.5373H29.8831V59.8141C29.8831 58.6218 28.8632 57.6282 27.5373 57.6282Z" fill="#149080"/>
<path d="M34.7786 2.28587H22.8458C22.8458 1.09357 21.8259 0.0999756 20.5 0.0999756C19.1741 0.0999756 18.1542 1.09357 18.1542 2.28587H6.22138L0 27.6224C0.81592 27.1256 1.63185 26.6288 2.65175 26.6288C4.07961 26.6288 4.89552 27.4237 5.60945 28.0198C6.32338 28.616 6.83333 28.8147 7.03731 28.8147C7.34328 28.8147 7.85323 28.5166 8.56716 28.0198C9.28109 27.5231 10.199 26.6288 11.5249 26.6288C12.8507 26.6288 13.7687 27.4237 14.4826 28.0198C15.1965 28.5166 15.7065 28.8147 16.0124 28.8147C16.1144 28.8147 16.3184 28.7154 16.6244 28.616C16.8283 28.5166 17.1343 28.2186 17.5423 28.0198C18.0522 27.6224 18.6642 27.0263 19.5821 26.8275C19.8881 26.7282 20.194 26.7282 20.5 26.7282C21.8259 26.7282 22.7438 27.5231 23.4577 28.1192C24.1716 28.616 24.6816 28.9141 24.9876 28.9141C25.2935 28.9141 25.8035 28.616 26.4154 28.1192C27.1293 27.5231 28.0472 26.7282 29.3731 26.7282C30.801 26.7282 31.6169 27.5231 32.3308 28.1192C32.6368 28.4173 32.9428 28.616 33.2487 28.7154C33.4527 28.8147 33.6567 28.9141 33.8607 28.9141C34.1667 28.9141 34.6766 28.616 35.2885 28.0198C36.0025 27.4237 36.9204 26.6288 38.2463 26.6288C39.2662 26.6288 40.0821 27.1256 40.898 27.6224L34.7786 2.28587Z" fill="#149080"/>
<path d="M23.9677 53.157H16.9304C16.2164 53.157 15.8085 53.6538 15.8085 54.25C15.8085 54.8461 16.3184 55.3429 16.9304 55.3429H23.9677C24.6816 55.3429 25.0896 54.8461 25.0896 54.25C25.1915 53.6538 24.6816 53.157 23.9677 53.157Z" fill="#149080"/>
<path d="M20.5 28.8141C20.398 28.8141 20.194 28.9134 19.8881 29.0128C19.6841 29.1122 19.4801 29.3109 19.2761 29.4102V33.0865H21.6219V29.5096C21.1119 29.1122 20.704 28.8141 20.5 28.8141Z" fill="#149080"/>
</g>
</symbol><symbol id="logo-footer" viewBox="0 0 102 35">
<path d="M19.2204 21.5C19.1204 18.8 18.7204 16.2 18.7204 13.5C18.7204 11.3 19.1204 9.09997 18.3204 6.99997C18.3204 6.79997 18.4204 6.49997 18.4204 6.29997C18.6204 5.29997 15.1204 5.79997 14.6204 6.79997C14.3204 7.09997 14.1204 7.39997 14.2204 7.79997C14.2204 7.89997 14.3204 7.99997 14.3204 8.09997C13.6204 11.3 12.7204 14.4 11.7204 17.5C11.3204 18.7 10.8204 19.8 10.4204 21C9.82041 19.9 9.22041 18.8 8.82041 17.6C7.42041 14.2 6.22041 10.7 4.52041 7.39997C4.72041 5.89997 1.32041 5.99997 0.620408 7.39997C-0.179592 9.09997 -0.0795918 10.8 0.220408 12.6C0.520408 14.6 0.620408 16.6 0.620408 18.7C0.620408 22.7 1.02041 26.6 1.02041 30.6C0.620408 31 0.520408 31.5 0.920408 32C1.12041 32.2 1.32041 32.4 1.52041 32.5C2.52041 33.2 5.12041 32.6 5.12041 31.2C5.12041 27.1 4.82041 23 4.72041 18.8C4.72041 18.4 4.72041 18 4.72041 17.6C4.82041 17.7 4.82041 17.9 4.92041 18C5.52041 19.6 6.22041 21.2 7.12041 22.7C8.02041 24.2 8.42041 25.8 8.92041 27.4C8.72041 27.6 8.62041 27.9 8.72041 28.1C8.72041 28.3 8.82041 28.4 9.02041 28.5C9.62041 29 10.8204 28.8 11.5204 28.5C11.8204 28.4 12.1204 28.2 12.3204 28.1C12.6204 27.9 13.2204 27.4 13.0204 26.9C13.0204 26.8 12.9204 26.7 12.9204 26.6C13.4204 25.3 13.6204 24 13.9204 22.7C14.2204 21.3 14.7204 19.9 15.2204 18.6C15.3204 19.2 15.3204 19.8 15.4204 20.5C15.6204 23.1 15.4204 25.6 15.4204 28.1C15.4204 28.9 15.5204 29.7 15.6204 30.6C15.7204 30.9 16.0204 32.4 15.9204 32.5C15.1204 33 15.3204 33.6 16.1204 33.8C17.0204 34 18.2204 33.7 18.9204 33.1C20.1204 32 19.5204 30.3 19.3204 28.9C18.8204 26.5 19.3204 23.9 19.2204 21.5Z" fill="black"/>
<path d="M27.6204 22.2001C27.5204 20.2001 26.8204 18.3001 26.8204 16.3001C26.8204 14.0001 27.0204 11.7001 26.6204 9.40009C26.5204 8.70009 22.5204 9.50009 22.7204 10.4001C23.0204 12.5001 22.9204 14.6001 22.9204 16.8001C22.9204 18.8001 23.4204 20.7001 23.6204 22.7001C23.9204 24.8001 23.5204 26.9001 23.7204 28.9001C23.8204 29.9001 24.5204 31.6001 23.8204 32.5001C23.4204 33.0001 25.3204 32.8001 25.4204 32.8001C26.2204 32.7001 27.2204 32.4001 27.7204 31.8001C28.4204 31.0001 27.9204 29.4001 27.8204 28.4001C27.5204 26.4001 27.7204 24.2001 27.6204 22.2001Z" fill="black"/>
<path d="M43.9204 18.9C41.8204 16.1 38.0204 18.1 35.3204 17.4C33.9204 17 33.9204 15.1 33.9204 14C33.9204 12.6 33.8204 11.3 33.6204 9.90003C33.5204 8.80003 33.6204 7.80003 34.3204 7.00004C34.4204 6.90004 35.2204 6.70003 35.1204 6.70003C35.5204 6.60003 35.8204 6.60003 36.2204 6.60003C37.7204 6.50003 40.8204 6.80004 40.2204 9.10004C39.9204 10.1 43.8204 9.50004 44.1204 8.50004C45.3204 3.90004 36.8204 4.80004 34.4204 5.40004C32.2204 6.00004 29.8204 7.20004 29.6204 9.80003C29.5204 11 29.9204 12.2 29.9204 13.4C30.0204 14.8 29.7204 16.2 30.2204 17.5C31.3204 20.5 35.7204 19.1 38.0204 19.2C41.8204 19.5 40.7204 24.7 40.7204 27.1C40.7204 28.4 41.9204 30.5 40.9204 31.6C40.3204 32.3 38.9204 32.3 38.1204 32.4C37.3204 32.5 35.9204 32.7 35.4204 31.9C34.4204 30.5 35.5204 28.1 35.3204 26.5C35.2204 25.6 31.2204 26.4 31.4204 27.5C31.7204 30.1 30.0204 33.6 33.8204 34.1C36.2204 34.4 39.0204 33.9 41.3204 33.2C42.5204 32.8 43.6204 32.3 44.5204 31.4C45.5204 30.5 45.2204 29.1 44.9204 27.9C44.4204 24.8 45.8204 21.4 43.9204 18.9Z" fill="black"/>
<path d="M61.3204 18.7001C61.2204 14.9001 60.6204 11.2001 60.6204 7.40009C60.6204 5.40009 56.6204 6.10009 56.6204 7.70009C56.6204 11.3001 57.1204 14.9001 57.3204 18.5001C57.3204 18.6001 57.3204 18.6001 57.3204 18.7001C55.4204 18.7001 53.4204 18.9001 51.4204 18.9001C51.6204 14.3001 50.8204 9.70009 51.0204 5.00009C51.0204 4.40009 47.1204 4.90009 47.1204 6.00009C46.9204 10.5001 47.7204 14.9001 47.6204 19.4001C47.5204 21.5001 47.4204 23.7001 47.3204 25.8001C47.3204 26.9001 47.5204 28.0001 47.6204 29.1001C47.7204 30.1001 48.1204 31.4001 47.8204 32.4001C47.6204 33.2001 51.4204 32.7001 51.7204 31.7001C52.2204 29.9001 51.5204 27.7001 51.3204 25.9001C51.1204 24.2001 51.3204 22.4001 51.4204 20.7001C53.4204 20.6001 55.5204 20.4001 57.5204 20.7001C57.6204 22.1001 57.7204 23.5001 57.8204 24.8001C57.9204 26.0001 58.0204 27.1001 58.0204 28.3001C58.0204 29.3001 58.1204 30.8001 57.8204 31.8001C57.0204 33.9001 60.9204 33.7001 61.5204 32.2001C62.2204 30.3001 62.0204 28.0001 61.9204 26.0001C61.7204 23.5001 61.3204 21.1001 61.3204 18.7001Z" fill="black"/>
<path d="M78.2204 23.0999C77.3204 20.2999 75.8204 17.8999 74.6204 15.2999C75.6204 13.3999 76.6204 11.3999 77.5204 9.39992C78.3204 7.59992 78.9204 5.59992 80.6204 4.29992C81.2204 3.89992 81.2204 3.39992 80.3204 3.29992C79.4204 3.19992 78.2204 3.49992 77.5204 3.99992C76.1204 5.29992 75.1204 6.69992 74.4204 8.39992C73.5204 10.4999 72.5204 12.4999 71.5204 14.4999C71.4204 14.5999 71.4204 14.7999 71.3204 14.8999C70.8204 15.1999 70.5204 15.6999 70.7204 16.1999C69.9204 17.7999 69.1204 19.2999 68.2204 20.7999C67.9204 15.2999 67.2204 9.69992 67.0204 4.19992C67.0204 2.89992 63.0204 3.69992 63.1204 5.19992C63.3204 12.0999 64.3204 18.8999 64.4204 25.7999C64.4204 25.7999 64.4204 25.7999 64.4204 25.8999C64.1204 26.1999 64.2204 26.3999 64.5204 26.4999C64.5204 28.2999 64.4204 29.9999 64.3204 31.7999C63.8204 32.4999 64.8204 32.8999 65.4204 32.8999H65.5204C66.2204 32.8999 68.1204 32.5999 68.2204 31.4999C68.4204 29.3999 68.5204 27.2999 68.4204 25.1999C70.0204 23.4999 71.3204 21.5999 72.5204 19.5999C73.3204 21.0999 74.0204 22.5999 74.5204 24.1999C75.4204 26.8999 76.8204 29.4999 77.6204 32.1999C78.1204 33.9999 82.1204 32.8999 81.5204 31.1999C80.5204 28.3999 79.1204 25.8999 78.2204 23.0999Z" fill="black"/>
<path d="M101.72 18.4999C101.52 17.6999 100.32 17.6999 99.4204 17.6999C99.4204 17.3999 99.4204 16.9999 99.4204 16.6999C99.3204 13.9999 99.2204 11.2999 99.0204 8.6999C98.8204 6.1999 97.4204 5.3999 95.0204 5.4999C92.6204 5.5999 89.8204 5.9999 87.5204 6.8999C84.9204 7.8999 83.4204 9.7999 82.9204 12.5999C82.4204 15.5999 83.1204 18.7999 83.3204 21.7999C83.5204 25.2999 83.4204 28.7999 83.4204 32.2999C83.4204 32.8999 87.3204 32.2999 87.3204 31.2999C87.3204 28.4999 87.3204 25.6999 87.3204 22.9999C87.3204 22.1999 87.2204 21.3999 87.2204 20.5999C88.6204 19.9999 90.9204 20.5999 92.3204 20.6999C93.4204 20.7999 94.5204 20.4999 95.5204 20.3999C95.5204 22.6999 95.6204 24.9999 95.7204 27.2999C95.7204 28.4999 96.2204 30.7999 95.3204 31.7999C94.9204 32.2999 96.8204 32.0999 96.9204 32.0999C97.7204 31.9999 98.7204 31.6999 99.2204 31.0999C100.12 29.9999 99.7204 27.2999 99.6204 25.9999C99.5204 24.0999 99.5204 22.1999 99.5204 20.2999C100.62 20.0999 101.92 19.3999 101.72 18.4999ZM87.1204 18.3999C87.0204 17.1999 86.9204 15.8999 86.8204 14.6999C86.6204 12.3999 86.9204 9.0999 89.1204 7.6999C89.7204 7.2999 90.8204 7.3999 91.5204 7.2999C92.5204 7.0999 93.5204 6.8999 94.3204 7.4999C95.5204 8.2999 95.2204 11.1999 95.2204 12.3999C95.2204 14.3999 95.4204 16.3999 95.5204 18.3999C94.9204 18.4999 94.4204 18.4999 93.8204 18.4999C91.5204 18.2999 89.2204 17.8999 87.1204 18.3999Z" fill="black"/>
<path d="M24.2204 6.7C24.7204 6.6 25.2204 6.5 25.7204 6.2C25.8204 6.1 25.9204 6 25.9204 6C26.4204 5.7 26.9204 5.2 26.6204 4.6C26.1204 3.5 26.2204 2.4 26.2204 1.2C26.2204 0.2 25.2204 0 24.4204 0C23.7204 0.1 22.2204 0.6 22.2204 1.5C22.2204 2.5 22.1204 3.5 22.3204 4.5C22.3204 4.6 22.2204 4.7 22.2204 4.9C22.1204 5.1 22.2204 5.3 22.3204 5.5V5.6C22.3204 5.7 22.3204 5.8 22.3204 5.9C22.4204 6.1 22.5204 6.3 22.7204 6.4C23.3204 6.7 23.8204 6.7 24.2204 6.7Z" fill="black"/>
</symbol><symbol id="logo" viewBox="0 0 149 72">
<path d="M144.16 31.1053C142.65 32.1912 141.039 32.9809 139.428 33.8693C139.428 32.1912 139.328 30.4143 138.824 28.8349C138.925 28.5388 138.925 28.1439 138.925 27.8478C139.328 24.8864 139.63 20.8391 136.912 18.7662C136.61 18.47 135.704 18.7662 134.999 19.0623C134.798 18.8649 134.697 18.7662 134.496 18.6674C134.395 18.47 134.295 18.1739 134.295 17.9765C134.295 17.8777 134.093 17.779 133.892 17.779C134.194 17.3842 134.194 16.9893 133.489 16.6932C133.087 16.4958 132.684 16.397 132.382 16.2983C132.281 16.1996 132.281 16.1996 132.181 16.1996C131.275 15.9035 130.268 15.7061 129.261 15.5086C129.362 15.2125 129.664 14.7189 129.865 14.5215C129.966 14.3241 130.167 14.2254 130.268 14.1266C130.369 14.0279 130.369 14.0279 130.469 13.9292C130.469 13.9292 130.57 13.9292 130.57 13.8305C130.57 13.8305 130.57 13.8305 130.671 13.7318C131.073 13.4356 131.476 12.8434 130.872 12.5472C130.268 12.2511 129.362 12.4485 128.859 12.7447C127.953 13.4356 127.248 14.1266 126.745 15.1138C124.732 14.9163 122.718 14.9163 120.604 15.0151C120.705 14.9163 120.705 14.8176 120.705 14.7189C120.906 14.1266 119.799 14.2254 119.497 14.2254C117.886 14.4228 116.376 14.6202 114.766 14.8176C116.175 11.0665 117.886 6.3283 115.772 2.67591C114.564 0.602929 111.847 0.109363 109.632 0.0106495C107.216 -0.0880637 104.699 0.504216 102.585 1.59006C97.7536 4.1566 95.4383 9.19098 94.331 14.5215C93.8277 13.8305 92.0157 14.1266 91.7137 15.0151C91.6131 15.3112 91.5124 15.6073 91.4117 16.0022C91.2104 16.1996 91.1097 16.397 91.1097 16.5945C91.1097 16.6932 91.1097 16.6932 91.1097 16.7919C91.0091 16.7919 91.0091 16.7919 90.9084 16.7919C90.9084 16.6932 90.9084 16.5945 91.0091 16.4958C91.1097 16.397 91.2104 16.2983 91.3111 16.1009C91.915 13.8305 92.519 11.5601 93.2237 9.3884C93.5257 8.5987 90.7071 8.99355 90.4051 9.78326C90.0024 10.9678 89.5998 12.1524 89.2978 13.3369C89.0965 13.4356 88.8951 13.5344 88.8951 13.6331V13.7318C88.7945 13.6331 88.5931 13.5344 88.3918 13.5344C88.3918 13.2382 88.3918 12.9421 88.3918 12.5472C88.3918 12.1524 85.5732 12.5472 85.5732 13.3369C85.5732 13.8305 85.5732 14.3241 85.5732 14.9163C85.3719 15.0151 85.2712 15.1138 85.0699 15.2125C84.9692 15.3112 84.9692 15.3112 84.8686 15.4099C84.7679 15.5086 84.7679 15.6073 84.7679 15.6073V15.7061C84.7679 15.7061 84.7679 15.706 84.6672 15.8048C84.5666 15.9035 84.4659 16.1009 84.6672 16.2983C84.8686 16.4958 85.1706 16.4958 85.3719 16.4958H85.4725C85.4725 16.6932 85.4725 16.7919 85.4725 16.9893C85.2712 16.9893 84.9692 16.9893 84.7679 16.9893L84.3652 16.8906C84.3652 16.4958 83.6606 16.397 82.9559 16.5945V16.4958C82.8553 15.9035 82.7546 15.3112 82.7546 14.7189C82.9559 14.6202 83.2579 14.5215 83.4593 14.4228C83.6606 14.3241 83.7613 14.2254 83.7613 14.0279C83.7613 13.9292 83.7613 13.9292 83.7613 13.8305C83.7613 13.6331 83.3586 13.6331 83.2579 13.6331C83.0566 13.6331 82.8553 13.6331 82.654 13.6331C82.5533 12.3498 82.5533 11.0665 82.5533 9.78326C82.5533 8.99355 79.7347 9.48712 79.7347 10.573C79.7347 12.3498 79.7347 14.1266 79.936 15.8048C79.8354 15.8048 79.7347 15.8048 79.634 15.8048C79.634 15.3112 79.634 14.8176 79.634 14.3241C79.634 13.3369 78.3254 13.1395 77.5201 13.5344C77.8221 13.2382 78.0234 12.9421 77.9227 12.5472C77.5201 11.1652 77.1174 9.78326 76.9161 8.30256C76.7148 6.92057 73.8962 7.61157 74.0975 9.09227C74.2988 10.573 74.7015 11.9549 75.1041 13.3369C75.3055 14.1266 76.4128 14.2254 77.2181 13.8305C77.0168 14.0279 76.8154 14.3241 76.8154 14.6202C76.8154 14.8176 76.8154 15.0151 76.8154 15.2125C76.5135 14.9163 76.3121 14.9163 75.9095 14.9163C74.8022 14.9163 74.1982 15.8048 74.5002 16.397C74.2988 16.397 74.1982 16.2983 73.9968 16.2983C73.5942 15.1138 73.2922 13.8305 73.2922 12.5472C73.2922 11.6588 71.9836 11.5601 71.1783 11.8562C71.1783 11.7575 71.1783 11.7575 71.1783 11.6588C70.7756 10.8691 70.5743 9.98068 70.3729 9.19098C70.071 7.90771 67.1517 8.5987 67.5543 9.98068C67.7557 10.573 67.8563 11.264 68.0577 11.8562C68.0577 11.8562 68.0577 11.8562 67.957 11.8562C67.655 11.9549 67.353 12.0537 67.051 12.2511C66.2457 12.3498 65.2391 12.8434 65.2391 13.4356C65.3397 13.9292 65.3397 14.4228 65.4404 14.8176C65.0377 14.9163 64.4338 14.9163 63.9304 15.0151C63.6285 14.2254 63.4271 13.4356 63.3265 12.6459C63.2258 11.7575 61.7158 11.7575 61.0112 12.3498C60.2059 10.2768 59.1992 8.40127 57.8906 6.62443C55.1727 3.26819 50.6428 2.08363 46.5156 2.97205C44.6029 3.3669 42.791 4.1566 41.4824 5.53859C40.2744 6.92057 40.0731 8.5987 40.2744 10.2768C40.4757 11.7575 40.8784 14.2254 41.885 16.1996C41.4824 16.1996 41.1804 16.1996 40.979 16.2983C40.677 16.397 40.3751 16.4958 40.1737 16.6932C38.2611 16.6932 36.2478 16.6932 34.3352 16.5945C30.1073 16.397 25.9801 15.7061 21.7522 15.9035C20.8462 15.9035 20.2422 16.5945 20.2422 17.1867C19.2356 17.6803 18.531 18.47 18.1283 19.4572C16.417 18.3713 14.6051 17.1867 12.7931 16.2983C12.0885 15.9035 9.47119 16.9893 10.4778 17.4829C12.2898 18.3713 14.1017 19.5559 15.813 20.6417C16.3163 20.9378 17.1217 20.7404 17.625 20.543C17.625 20.543 17.7256 20.543 17.8263 20.4443C17.5243 21.8263 17.625 23.5044 18.0276 24.8864C18.0276 24.9851 18.1283 25.0838 18.229 25.1825C18.229 25.4787 18.229 25.8735 18.229 26.1697C18.229 26.2684 18.229 26.2684 18.229 26.3671C17.8263 26.5645 17.5243 26.8606 17.4236 27.1568C17.2223 28.5388 17.1217 29.9208 17.1217 31.3027C16.8197 31.5002 16.6183 31.7963 16.6183 32.0924C16.417 35.35 16.6183 38.7062 17.1217 41.9638C17.323 44.629 17.8263 47.1956 18.3296 49.8608C18.4303 50.2557 18.4303 50.6505 18.531 51.1441C18.229 52.2299 18.1283 53.5132 18.3296 54.5991C17.4236 54.7965 16.6183 55.4875 17.1217 56.1785C17.927 57.363 18.7323 58.1527 19.7389 58.745C19.1349 58.6463 18.3296 58.8437 17.8263 59.3373C17.021 60.127 16.115 60.818 15.3097 61.6077C14.907 62.0025 15.0077 62.4961 15.6117 62.6935C16.3163 62.891 17.1217 62.5948 17.625 62.2C18.4303 61.4103 19.3363 60.7193 20.1416 59.9296C20.3429 59.7321 20.4436 59.436 20.3429 59.2386C23.5642 60.9167 27.5907 60.5218 31.5166 60.127C30.6106 61.7064 30.0067 63.3845 29.302 65.0627C29 65.7536 31.8186 65.4575 32.1206 64.6678C32.7246 62.9897 33.3286 61.4103 34.2345 59.8309C37.9591 59.9296 41.7844 59.9296 45.5089 59.9296C45.6096 60.127 45.9116 60.2257 46.2136 60.2257C49.5355 60.5219 52.7567 60.127 55.978 59.5347C60.8099 59.3373 65.6417 59.0411 70.4736 58.745C78.0234 58.5476 85.6739 58.4489 93.2237 58.4489C93.3243 58.5476 93.425 58.6463 93.5257 58.745C93.8277 59.0411 94.1297 59.0411 94.5323 59.0411C94.633 59.0411 94.633 59.0411 94.7336 59.0411C95.4383 59.0411 96.1429 59.1399 96.8476 59.1399C97.0489 59.1399 97.1496 59.2386 97.4516 59.1399C98.2569 59.2386 99.0622 59.2386 99.7668 59.3373C99.9682 59.5347 100.27 59.6334 100.572 59.7321C104.397 60.0283 108.223 60.2257 112.048 60.4231C112.149 60.6206 112.551 60.7193 112.853 60.7193C120 60.818 128.255 63.4832 134.597 59.0411C135.1 58.6463 134.899 58.1527 134.295 58.054C134.194 58.054 134.093 58.054 133.993 58.054C135.201 55.29 136.207 52.5261 136.912 49.5647C137.315 49.3673 137.516 49.0711 137.516 48.6763C137.516 47.4917 137.717 46.3071 137.919 45.1226C138.12 44.2342 138.221 43.3457 138.321 42.4573C138.724 40.2856 139.126 38.1139 139.328 36.041C141.643 34.9551 143.858 33.7706 145.972 32.2899C147.582 31.1053 145.166 30.4143 144.16 31.1053ZM88.3918 16.2983L88.2911 16.397C88.3918 16.1009 88.3918 15.8048 88.4925 15.5086H88.5931C88.5931 15.7061 88.4925 16.0022 88.3918 16.2983Z" fill="black"/>
<path d="M63.729 12.5468C63.8297 12.7442 64.333 12.7442 64.5343 12.7442C64.937 12.7442 65.3396 12.6455 65.6416 12.5468C66.0443 12.3494 66.7489 11.9545 66.4469 11.461C66.0443 10.8687 65.8429 10.2764 65.4403 9.68411C65.3396 9.48669 64.8363 9.48669 64.635 9.48669C64.2323 9.48669 63.8296 9.5854 63.5277 9.68411C63.125 9.88154 62.4204 10.2764 62.7223 10.77C63.0243 11.3622 63.3263 12.0532 63.729 12.5468Z" fill="black"/>
<path d="M20.8461 10.8691C21.0474 11.4613 21.9534 11.4613 22.4567 11.3626C22.96 11.2639 23.866 10.7703 23.6647 10.0793C23.4634 9.48707 23.262 8.79608 22.7587 8.30251C22.2554 7.80894 21.4501 7.90766 20.8461 8.10508C20.4434 8.30251 19.6381 8.89479 20.1414 9.38835C20.5441 9.98063 20.6448 10.2768 20.8461 10.8691Z" fill="black"/>
<path d="M30.9124 13.8306C31.7177 13.8306 34.033 12.5474 32.1204 12.5474C31.2144 12.5474 28.9998 13.8306 30.9124 13.8306Z" fill="black"/>
<path d="M123.423 12.2512C123.725 12.3499 124.128 12.2512 124.53 12.1525C124.832 12.0538 125.235 11.9551 125.436 11.659C125.839 11.2641 126.141 10.968 126.443 10.4744C126.544 10.277 126.644 10.0795 126.443 9.88212C126.242 9.68469 125.94 9.68469 125.638 9.58598C125.235 9.58598 124.832 9.68469 124.53 9.78341C124.228 9.88212 123.926 10.0795 123.725 10.3757C123.624 10.5731 123.524 10.7705 123.322 10.8693C123.222 10.968 123.222 10.968 123.121 11.0667C122.92 11.2641 122.819 11.4615 122.819 11.659C122.92 12.0538 123.121 12.1525 123.423 12.2512Z" fill="black"/>
<path d="M136.811 17.5816C137.415 17.4828 138.22 17.3841 138.723 16.8906C140.032 15.8047 141.341 14.7189 142.347 13.3369C142.649 12.942 141.341 13.1395 141.24 13.1395C140.737 13.2382 139.931 13.4356 139.529 13.8305C138.623 15.1137 137.314 16.1009 136.106 17.1867C135.603 17.5816 136.509 17.5816 136.811 17.5816Z" fill="black"/>
<path d="M147.683 44.3332C146.072 44.3332 144.461 44.3332 142.75 44.3332C142.146 44.3332 141.24 44.8268 141.139 45.4191C141.039 46.1101 141.945 46.3075 142.448 46.3075C144.059 46.3075 145.669 46.3075 147.381 46.3075C147.985 46.3075 148.891 45.8139 148.991 45.2216C149.092 44.5307 148.287 44.3332 147.683 44.3332Z" fill="black"/>
<path d="M57.3874 60.1268C56.8841 60.2255 55.9781 60.423 55.7768 60.9165C55.2734 62.1998 54.7701 63.4831 54.3675 64.7663C54.1661 65.4573 56.9847 65.0625 57.1861 64.2728C57.5887 62.9895 57.9914 61.7062 58.5954 60.423C58.7967 59.9294 57.5887 60.1268 57.3874 60.1268Z" fill="black"/>
<path d="M62.0179 62.6935C61.7159 62.6935 61.3133 62.7922 61.0113 62.8909C60.7093 62.9896 60.3066 63.0883 60.0046 63.2858C59.904 63.3845 59.7026 63.4832 59.7026 63.6806C59.7026 63.7793 59.7026 63.8781 59.7026 63.9768C59.7026 64.0755 59.602 64.1742 59.602 64.2729C59.5013 64.3716 59.5013 64.4703 59.602 64.569C59.8033 64.6678 60.1053 64.6678 60.3066 64.6678C60.7093 64.6678 61.0113 64.569 61.4139 64.3716C61.6153 64.2729 62.0179 64.1742 62.2193 63.9768C62.3199 63.7793 62.4206 63.6806 62.5212 63.4832C62.5212 63.2858 62.5212 63.1871 62.5212 62.9896C62.5212 62.6935 62.1186 62.6935 62.0179 62.6935Z" fill="black"/>
<path d="M117.483 66.3456C117.081 65.6546 114.464 66.6417 114.665 67.1353C115.47 68.7147 116.577 70.1954 117.584 71.7748C117.987 72.4658 120.604 71.38 120.403 70.9851C119.396 69.4057 118.289 67.925 117.483 66.3456Z" fill="black"/>
<path d="M121.51 63.9767C121.208 63.3844 120.403 63.3844 119.899 63.5818C119.497 63.6805 118.39 64.1741 118.692 64.7664C119.094 65.5561 119.497 66.3458 119.899 67.0368C120.201 67.629 121.007 67.629 121.51 67.4316C121.913 67.3329 123.02 66.8393 122.718 66.2471C122.315 65.5561 121.913 64.7664 121.51 63.9767Z" fill="black"/>
<path d="M5.74646 42.6544C4.2365 43.0492 2.72654 43.2467 1.21658 43.6415C0.713257 43.7402 -0.0920558 44.2338 0.00860824 44.9248C0.209936 45.6158 1.11591 45.6158 1.7199 45.5171C3.22986 45.1222 4.73982 44.9248 6.24978 44.5299C6.7531 44.4312 7.55841 43.839 7.45775 43.2467C7.15576 42.5557 6.24978 42.5557 5.74646 42.6544Z" fill="black"/>
<path d="M44.0996 39.6922C43.9989 37.0269 43.5963 34.3617 43.5963 31.6964C43.5963 29.5247 43.9989 27.2543 43.1936 25.1814C43.1936 24.9839 43.2943 24.6878 43.2943 24.4904C43.4956 23.4045 39.9724 23.9968 39.469 24.9839C39.167 25.2801 38.9657 25.5762 39.0664 25.9711C39.0664 26.0698 39.167 26.1685 39.167 26.2672C38.4624 29.426 37.5564 32.5848 36.5498 35.645C36.1471 36.8295 35.6438 38.0141 35.2411 39.1986C34.6372 38.1128 34.0332 37.0269 33.5299 35.8424C32.1206 32.3874 30.9126 28.9325 29.2013 25.6749C29.4026 24.1942 25.9801 24.2929 25.2754 25.6749C24.4701 27.353 24.5708 29.0312 24.8728 30.9067C25.1747 32.9797 25.2754 34.954 25.2754 37.0269C25.2754 40.9755 25.6781 44.924 25.6781 48.8725C25.2754 49.2674 25.1747 49.7609 25.5774 50.2545C25.7787 50.4519 25.9801 50.6494 26.1814 50.8468C27.0874 51.5378 29.7046 50.9455 29.7046 49.5635C29.7046 45.4176 29.4026 41.3703 29.302 37.2244C29.302 36.8295 29.302 36.4347 29.302 36.0398C29.4026 36.1385 29.4026 36.3359 29.5033 36.4347C30.1073 38.0141 30.8119 39.5935 31.7179 41.0742C32.6239 42.5549 33.0265 44.1343 33.5299 45.7137C33.3285 45.9111 33.2279 46.2073 33.3285 46.4047C33.3285 46.6021 33.4292 46.7008 33.6305 46.7995C34.2345 47.3918 35.5431 47.0957 36.1471 46.7995C36.4491 46.7008 36.7511 46.5034 36.9524 46.4047C37.2544 46.2073 37.8584 45.7137 37.6571 45.2201C37.6571 45.1214 37.5564 45.0227 37.5564 44.924C38.0597 43.6407 38.2611 42.3575 38.5631 40.9755C38.8651 39.5935 39.3684 38.2115 39.8717 36.8295C39.9724 37.4218 39.9724 38.1128 40.073 38.7051C40.2744 41.2716 40.073 43.7394 40.073 46.306C40.073 47.1944 40.1737 47.8854 40.2744 48.7738C40.375 49.07 40.677 50.5507 40.5763 50.6494C39.9724 51.2416 40.1737 51.9326 40.979 52.0313C41.885 52.2288 43.0929 51.9326 43.7976 51.3404C45.0056 50.2545 44.4016 48.4777 44.2003 47.0957C43.5963 44.7266 44.0996 42.0613 44.0996 39.6922Z" fill="white"/>
<path d="M52.5556 40.384C52.4549 38.4097 51.7503 36.5342 51.7503 34.5599C51.7503 32.2895 51.9516 30.0191 51.5489 27.7487C51.4483 27.0577 47.4217 27.8474 47.5224 28.8345C47.8244 30.9075 47.7237 33.0792 47.7237 35.1522C47.7237 37.2252 48.227 39.002 48.4283 41.075C48.7303 43.148 48.3277 45.2209 48.529 47.2939C48.6297 48.281 49.3343 50.0579 48.6297 50.8476C48.227 51.3412 50.1396 51.1437 50.2403 51.1437C51.0456 51.045 52.0522 50.7489 52.5556 50.1566C53.2602 49.3669 52.7569 47.7875 52.6562 46.8003C52.4549 44.5299 52.6562 42.457 52.5556 40.384Z" fill="white"/>
<path d="M69.1649 37.0275C67.051 34.2636 63.2258 36.2378 60.5078 35.4481C59.0985 35.0533 59.0985 33.1777 59.0985 32.0919C59.0985 30.7099 58.9979 29.3279 58.7965 27.9459C58.6959 26.8601 58.7965 25.8729 59.6019 25.0832C59.7025 24.9845 60.5078 24.7871 60.4072 24.7871C60.8098 24.6884 61.1118 24.6884 61.5145 24.6884C63.1251 24.5897 66.2457 24.8858 65.6417 27.1562C65.3397 28.1433 69.2656 27.5511 69.5676 26.5639C70.7756 22.0231 62.1185 22.9115 59.7025 23.5038C57.4879 24.0961 54.9713 25.3794 54.8706 27.8472C54.77 29.0318 55.1726 30.2163 55.1726 31.4009C55.2733 32.7829 54.9713 34.1649 55.4746 35.5468C56.5819 38.5082 61.1118 37.1263 63.3264 37.3237C67.2523 37.6198 66.0444 42.7529 66.145 45.2207C66.145 46.504 67.353 48.6757 66.3464 49.6628C65.7424 50.3538 64.3331 50.3538 63.5278 50.4525C62.7224 50.5512 61.3131 50.7487 60.7092 49.959C59.7025 48.577 60.8098 46.2079 60.6085 44.5297C60.4072 43.5426 56.3806 44.431 56.5819 45.5169C56.8839 48.1821 55.1726 51.6371 58.9979 52.1307C61.5145 52.4268 64.2324 51.9332 66.6483 51.2422C67.8563 50.8474 68.9636 50.2551 69.9703 49.4654C70.9769 48.577 70.6749 47.0963 70.3729 45.9117C69.6683 42.9503 71.0776 39.5941 69.1649 37.0275Z" fill="white"/>
<path d="M86.7812 36.83C86.6805 33.0789 86.0765 29.3278 86.0765 25.5767C86.0765 23.6024 82.05 24.2934 82.05 25.8729C82.05 29.4265 82.5533 32.9802 82.7546 36.6326C82.7546 36.7313 82.7546 36.7313 82.7546 36.83C80.7413 36.83 78.8287 37.0274 76.8154 37.0274C77.0168 32.3879 76.2114 27.8471 76.4128 23.2076C76.4128 22.6153 72.4869 23.1089 72.3862 24.2934C72.1849 28.7355 72.9902 33.1776 72.8895 37.6197C72.7889 39.7914 72.6882 41.8644 72.5875 44.0361C72.5875 45.1219 72.7889 46.2078 72.8895 47.2936C72.9902 48.2808 73.3928 49.6627 73.0909 50.5512C72.8895 51.3409 76.7148 50.8473 77.0168 49.8602C77.5201 48.0833 76.8154 45.8129 76.6141 44.0361C76.4128 42.358 76.6141 40.5811 76.7148 38.8043C78.728 38.7056 80.842 38.5081 82.8553 38.8043C82.9559 40.1863 83.0566 41.5683 83.1573 42.9502C83.2579 44.1348 83.3586 45.2206 83.3586 46.4052C83.3586 47.3923 83.4593 48.873 83.1573 49.8602C82.352 51.9331 86.3785 51.7357 86.9825 50.255C87.6871 48.3795 87.4858 46.1091 87.3852 44.1348C87.1838 41.7657 86.7812 39.2979 86.7812 36.83Z" fill="white"/>
<path d="M103.894 41.3711C102.988 38.6071 101.478 36.238 100.27 33.5728C101.277 31.5985 102.283 29.7229 103.29 27.7487C104.095 25.9718 104.8 23.8989 106.411 22.7143C107.015 22.2207 107.015 21.8259 106.109 21.7272C105.203 21.6285 103.995 21.9246 103.29 22.4182C101.78 23.6027 100.874 24.9847 100.069 26.6628C99.0622 28.7358 98.1562 30.7101 97.0489 32.6843C96.9482 32.783 96.8475 32.9805 96.8475 33.0792C96.3442 33.3753 96.0422 33.8689 96.2436 34.3625C95.4382 35.9419 94.6329 37.4226 93.727 39.002C93.425 33.474 92.7203 27.9461 92.519 22.4182C92.519 21.1349 88.4924 21.9246 88.4924 23.504C88.6938 30.3152 89.7004 37.1264 89.8011 44.0364C89.8011 44.0364 89.8011 44.0364 89.8011 44.1351C89.4991 44.4312 89.5997 44.6286 89.9017 44.7273C89.9017 46.5042 89.8011 48.1823 89.7004 49.9591C89.1971 50.7489 90.2037 51.045 90.8077 51.045H90.9084C91.613 51.045 93.5256 50.6501 93.6263 49.663C93.8276 47.59 93.9283 45.5171 93.8276 43.4441C95.4382 41.7659 96.7469 39.7917 97.9549 37.8174C98.7602 39.2981 99.4648 40.7788 99.9681 42.3582C100.874 45.1222 102.283 47.59 103.189 50.354C103.693 52.1308 107.719 51.045 107.216 49.2682C106.31 46.6029 104.901 44.0364 103.894 41.3711Z" fill="white"/>
<path d="M127.852 36.7316C127.651 35.9419 126.443 35.8431 125.537 35.9419C125.537 35.6457 125.537 35.2509 125.537 34.9547C125.436 32.2895 125.336 29.6242 125.134 26.959C124.933 24.4911 123.524 23.6027 121.108 23.7014C118.692 23.8001 115.773 24.195 113.457 25.0834C110.84 26.0705 109.33 28.0448 108.827 30.7101C108.223 33.6715 109.028 36.929 109.229 39.8904C109.431 43.3453 109.33 46.899 109.33 50.354C109.33 50.9463 113.357 50.354 113.357 49.2681C113.357 46.5042 113.357 43.7402 113.357 40.9762C113.357 40.1865 113.256 39.3968 113.256 38.5084C114.665 37.9161 116.981 38.5084 118.39 38.6071C119.497 38.7058 120.605 38.4097 121.712 38.311C121.712 40.5814 121.812 42.9505 121.913 45.2209C121.913 46.4055 122.416 48.7746 121.51 49.7617C121.108 50.2553 123.02 50.0578 123.121 50.0578C123.926 49.9591 124.933 49.663 125.436 48.972C126.443 47.8862 125.94 45.2209 125.839 43.8389C125.738 41.9634 125.738 39.9891 125.738 38.1135C126.745 38.311 128.054 37.5213 127.852 36.7316ZM112.954 36.5341C112.853 35.2509 112.753 34.0663 112.652 32.783C112.451 30.4139 112.753 27.2551 114.967 25.7744C115.571 25.3795 116.679 25.4783 117.383 25.3795C118.39 25.1821 119.397 24.9847 120.303 25.577C121.51 26.3667 121.208 29.2294 121.208 30.4139C121.208 32.3882 121.41 34.3624 121.51 36.4354C120.906 36.5341 120.403 36.5341 119.799 36.5341C117.484 36.4354 115.169 36.1393 112.954 36.5341Z" fill="white"/>
<path d="M49.1328 24.9843C49.6361 24.8856 50.2401 24.7869 50.6427 24.4908C50.7434 24.3921 50.8441 24.3921 50.9447 24.2933C51.4481 23.9972 51.9514 23.5036 51.6494 22.9114C51.1461 21.8255 51.2467 20.641 51.2467 19.5551C51.2467 18.568 50.2401 18.2718 49.4348 18.3705C48.7301 18.4693 47.2202 18.9628 47.2202 19.8512C47.2202 20.8384 47.1195 21.8255 47.3208 22.8126C47.3208 22.9114 47.2202 23.0101 47.2202 23.2075C47.1195 23.4049 47.2202 23.6023 47.3208 23.7998V23.8985C47.3208 23.9972 47.3208 24.0959 47.3208 24.1946C47.4215 24.3921 47.5222 24.5895 47.7235 24.6882C48.1261 24.9843 48.6295 24.9843 49.1328 24.9843Z" fill="white"/>
</symbol><symbol id="mail" viewBox="0 0 32 21">
<path opacity="0.2" d="M28 0H4C1.8 0 0 1.8 0 4V17C0 19.2 1.8 21 4 21H28C30.2 21 32 19.2 32 17V4C32 1.8 30.2 0 28 0ZM2 5.3L9 10.6L2 15.9V5.3ZM30 17C30 18.1 29.1 19 28 19H4C2.9 19 2 18.1 2 17L9.8 11.1L14.2 14.4C14.7 14.8 15.4 15 16 15C16.6 15 17.3 14.8 17.8 14.4L22.2 11.1L30 17ZM30 15.8L23 10.5L30 5.2V15.8ZM17.2 13.6C16.8 13.9 16.4 14 16 14C15.6 14 15.1 13.9 14.8 13.6L10.7 10.5L9.9 9.9L2 4C2 2.9 2.9 2 4 2H28C29.1 2 30 2.9 30 4L17.2 13.6Z" fill="black"/>
</symbol><symbol id="map-pin" viewBox="0 0 67 101">
<path d="M57.1525 10.1264C44.0571 -2.07599 22.9419 -2.07599 9.84649 10.1264C-3.24896 22.3288 -3.24896 42.0708 9.84649 54.2732C9.84649 54.2732 33.4995 75.9002 33.4995 100.9C33.4995 75.9002 57.1525 54.2732 57.1525 54.2732C70.248 42.17 70.248 22.3288 57.1525 10.1264Z" fill="white"/>
<path d="M47.712 46.1386C47.1029 42.8648 47.8135 39.2934 47.712 35.9204C47.6105 32.1505 47.0014 28.4799 47.0014 24.8093C47.0014 21.8331 47.509 18.6585 46.4938 15.7815C46.5953 15.4839 46.5953 15.087 46.6969 14.7894C47.0014 13.3013 42.0272 14.095 41.3166 15.3847C40.809 15.7815 40.606 16.2775 40.809 16.6743C40.9105 16.7736 40.9105 16.8728 40.9105 17.0712C39.9969 21.5355 38.6772 25.8013 37.1544 30.1664C36.5453 31.8529 35.9363 33.4402 35.3272 35.0275C34.515 33.5394 33.7029 31.9521 32.9923 30.3648C31.0635 25.6029 29.2363 20.7418 26.9014 16.1783C27.206 14.095 22.3332 14.2934 21.4196 16.1783C20.3029 18.5593 20.4044 20.9402 20.8105 23.4204C21.2166 26.2974 21.3181 29.0751 21.3181 31.9521C21.4196 37.5077 21.8257 42.964 21.9272 48.5196C21.4196 49.1148 21.3181 49.7101 21.8257 50.4045C22.0287 50.7021 22.3332 50.9005 22.6378 51.1982C23.9575 52.1902 27.612 51.3966 27.612 49.4124C27.612 43.6585 27.206 38.0037 27.0029 32.2497C27.0029 31.6545 27.0029 31.1585 27.0029 30.5632C27.1044 30.7616 27.206 30.9601 27.206 31.1585C28.1196 33.341 29.0332 35.5236 30.3529 37.6069C31.5711 39.6902 32.1802 41.8728 32.8908 44.0553C32.5863 44.3529 32.4847 44.6505 32.5863 45.0474C32.4847 45.345 32.6878 45.4442 32.9923 45.5434C33.906 46.337 35.6317 45.9402 36.5453 45.5434C36.9514 45.345 37.3575 45.1466 37.7635 44.9482C38.2711 44.6505 38.9817 43.9561 38.7787 43.3609C38.7787 43.2617 38.6772 43.0632 38.6772 42.964C39.3878 41.1783 39.6923 39.3926 40.0984 37.5077C40.5044 35.5236 41.215 33.6386 41.9256 31.7537C42.0272 32.6466 42.0272 33.4402 42.1287 34.3331C42.4332 37.9045 42.1287 41.3767 42.1287 44.9482C42.1287 46.1386 42.2302 47.2299 42.4332 48.3212C42.5347 48.8172 42.9408 50.8013 42.8393 50.9005C41.9256 51.6942 42.2302 52.6863 43.3469 52.8847C44.6666 53.1823 46.2908 52.7855 47.3059 51.8926C48.9302 50.5037 48.1181 48.1228 47.712 46.1386Z" fill="#6BC6B3"/>
</symbol><symbol id="phone" viewBox="0 0 25 24">
<g opacity="0.2">
<path d="M17.4395 24C17.0363 24 16.7339 24 16.3306 24C11.3911 23.4074 7.7621 21.1358 5.14113 18.2717C2.52016 15.4075 0.403226 11.7532 0 6.7162C0 6.22237 0 5.82731 0 5.33349C0.100806 4.44461 0.504032 3.85202 1.10887 3.25943C1.71371 2.56808 2.72177 1.77796 3.62903 1.6792C4.33468 1.6792 5.44355 2.17302 5.84677 2.76561C6.25 3.25943 6.45161 4.34584 6.65323 5.13596C6.85484 6.02484 7.25806 7.11125 7.15726 7.90137C6.95565 9.08655 5.34274 9.58037 4.93952 10.4693C6.55242 14.1235 9.07258 16.889 12.5 18.6667C13.3065 18.1729 14.1129 16.7902 15.3226 16.7902C15.7258 16.7902 16.3306 16.9877 16.7339 17.0865C17.2379 17.1852 17.6411 17.3828 18.0444 17.5803C18.75 17.8766 20.0605 18.1729 20.4637 18.7655C20.8669 19.3581 21.1694 20.3457 21.0685 20.9383C20.7661 22.2222 18.6492 23.6049 17.4395 24Z" fill="black"/>
<path d="M12.6008 1.48147C18.5484 1.48147 23.4879 6.22217 23.4879 12.1481H25C25 5.43205 19.4557 0 12.6008 0V1.48147Z" fill="black"/>
<path d="M12.6008 9.18506V10.7653C13.4073 10.7653 14.0121 11.3579 14.0121 12.148H15.625C15.625 10.5678 14.3145 9.18506 12.6008 9.18506Z" fill="black"/>
<path d="M12.6008 6.12356C15.9274 6.12356 18.75 8.79021 18.75 12.1482H20.3629C20.3629 8.00009 16.9355 4.64209 12.7016 4.64209V6.12356H12.6008Z" fill="black"/>
</g>
</symbol><symbol id="play" viewBox="0 0 101 77">
<path d="M97.2706 18.1C97.2706 18.1 96.3698 11.1 93.467 7.99997C89.8636 3.99997 85.7597 3.89995 83.958 3.69995C70.6453 2.69995 50.6262 2.69995 50.6262 2.69995H50.5261C50.5261 2.69995 30.507 2.69995 17.1944 3.69995C15.2925 3.89995 11.2887 3.99997 7.68531 7.99997C4.88264 11.1 3.88169 18.1 3.88169 18.1C3.88169 18.1 2.98083 26.3 2.98083 34.5V42.2C2.98083 50.4 3.88169 58.6 3.88169 58.6C3.88169 58.6 4.78255 65.6 7.68531 68.7C11.2887 72.7 16.0933 72.6 18.1953 73C25.8026 73.8 50.6262 74 50.6262 74C50.6262 74 70.6453 74 83.958 73C85.8598 72.8 89.8636 72.7 93.467 68.7C96.2697 65.6 97.2706 58.6 97.2706 58.6C97.2706 58.6 98.1715 50.4 98.1715 42.2V34.5C98.1715 26.3 97.2706 18.1 97.2706 18.1Z" fill="#63D1BB"/>
<path d="M50.5262 76.8C49.5252 76.8 25.5023 76.5 17.8951 75.8H17.795H17.6949C17.3946 75.7 16.9943 75.7 16.5939 75.6C14.0915 75.3 9.387 74.7 5.78356 70.6C2.38032 67 1.37937 59.8 1.27927 59C1.27927 58.7 0.27832 50.5 0.27832 42.3V34.6C0.27832 26.3 1.17919 18.2 1.17919 17.9V17.8C1.27928 17 2.38033 9.89998 5.68348 6.19998C9.68729 1.79998 14.1916 1.30001 16.3937 1.10001C16.5939 1.10001 16.7941 1.1 16.8942 1H16.9943C30.3069 0 50.326 0 50.5262 0H50.6263C50.8265 0 70.8456 0 84.1582 1H84.2583C84.4585 1 84.5586 1.00001 84.7588 1.10001C86.9609 1.30001 91.4652 1.79998 95.469 6.19998C98.8722 9.79998 99.8732 17 99.9733 17.8C99.9733 18.1 100.974 26.3 100.974 34.6V42.3C100.974 50.6 100.073 58.7 99.9733 59V59.1C99.8732 59.9 98.7721 67.1 95.469 70.7C91.4652 75.1 86.9609 75.6 84.7588 75.8C84.5586 75.8 84.3584 75.8 84.2583 75.9H84.1582C70.8456 76.8 50.7264 76.8 50.5262 76.8ZM18.5958 70.4C26.1029 71.1 49.8255 71.4 50.6263 71.4C51.327 71.4 70.7455 71.4 83.6578 70.4C83.8579 70.4 84.0581 70.4 84.2583 70.3C86.06 70.1 88.8627 69.8 91.4652 67C93.2669 65 94.3679 60.1 94.5681 58.4C94.6682 57.9 95.469 50 95.469 42.3V34.6C95.469 26.8 94.5681 19 94.468 18.5C94.1677 16.1 93.0667 11.7 91.3651 10C88.7626 7.1 85.9599 6.89998 84.1582 6.69998C83.958 6.69998 83.7578 6.70001 83.5576 6.60001C70.4452 5.60001 50.7264 5.60001 50.5262 5.60001H50.4261C50.2259 5.60001 30.407 5.60001 17.3946 6.60001C17.1944 6.60001 16.9942 6.59998 16.7941 6.69998C14.9923 6.89998 12.1897 7.2 9.5872 10C7.78549 12 6.68443 16.9 6.48424 18.6C6.38415 19.2 5.58338 27 5.58338 34.7V42.4C5.58338 50.1 6.48424 58 6.48424 58.5C6.78453 60.9 7.88558 65.3 9.5872 67C11.8894 69.6 14.8923 70 17.0944 70.3C17.6949 70.2 18.0953 70.3 18.5958 70.4Z" fill="white"/>
<path d="M38.6146 20.5V56.2L68.443 38.4L38.6146 20.5Z" fill="white"/>
</symbol><symbol id="search" viewBox="0 0 18 18">
<path opacity="0.2" d="M17.6932 16.0568L14.2159 12.5795C15.2386 11.25 15.75 9.61364 15.75 7.875C15.75 3.47727 12.2727 0 7.875 0C3.47727 0 0 3.47727 0 7.875C0 12.2727 3.47727 15.75 7.875 15.75C9.61364 15.75 11.25 15.1364 12.5795 14.2159L16.0568 17.6932C16.2614 17.8977 16.4659 18 16.875 18C17.4886 18 18 17.4886 18 16.875C18 16.6705 17.8977 16.3636 17.6932 16.0568ZM2.25 7.875C2.25 4.80682 4.80682 2.25 7.875 2.25C10.9432 2.25 13.5 4.80682 13.5 7.875C13.5 10.9432 10.9432 13.5 7.875 13.5C4.80682 13.5 2.25 10.9432 2.25 7.875Z" fill="black"/>
</symbol><symbol id="toy" viewBox="0 0 60 61">
<path opacity="0.5" d="M0 44.7265L27.4 61V37.1527L0 20.7768V44.7265ZM51.3 12.6913V15.25C51.3 17.0923 47.8 18.6275 43.6 18.6275C39.3 18.6275 35.9 17.0923 35.9 15.25V11.0537C36.2 12.7936 39.5 14.2265 43.6 14.2265C47.9 14.2265 51.3 12.6913 51.3 10.849C51.3 9.00672 47.8 7.47148 43.6 7.47148C43.3 7.47148 42.9 7.47148 42.6 7.47148L37.6 4.50337V7.67617C37.6 9.51846 34.1 11.0537 29.9 11.0537C27.2 11.0537 24.9 10.4396 23.5 9.51846C23.3 9.31376 23.1 9.10906 22.8 8.90436C22.4 8.49496 22.2 8.08557 22.2 7.67617V4.6057L17.4 7.47148C17.1 7.47148 16.7 7.47148 16.3 7.47148C12 7.47148 8.60001 9.00672 8.60001 10.849C8.60001 12.6913 12.1 14.2265 16.3 14.2265C20.4 14.2265 23.7 12.7936 24 11.0537V15.25C24 17.0923 20.5 18.6275 16.3 18.6275C12 18.6275 8.60001 17.0923 8.60001 15.25V12.7936L2.60001 16.3758L30.1 32.7517L57.5 16.4782L51.3 12.6913ZM37.7 23.1309C37.7 24.9732 34.2 26.5084 30 26.5084C25.7 26.5084 22.3 24.9732 22.3 23.1309V18.9346C22.6 20.6745 25.9 22.1074 30 22.1074C34.1 22.1074 37.4 20.6745 37.7 18.9346V23.1309ZM32.6 37.3574V61L60 44.7265V21.0839L32.6 37.3574ZM29.9 6.75504C34.2 6.75504 37.6 5.2198 37.6 3.37752C37.6 1.53524 34.1 0 29.9 0C25.6 0 22.2 1.53524 22.2 3.37752C22.2 5.2198 25.6 6.75504 29.9 6.75504Z" fill="#149080"/>
</symbol><symbol id="video" viewBox="0 0 33 22">
<path d="M26.7504 10L32.7561 6V22L26.7504 18V10ZM24.7485 10V18C24.7485 20.2 22.9467 22 20.7447 22H4.7294C2.5273 22 0.725586 20.2 0.725586 18V10C0.725586 7.8 2.5273 6 4.7294 6H14.7389C14.7389 4.9 15.6398 4 16.7408 4V2H5.73035C5.12978 2 4.7294 1.6 4.7294 1C4.7294 0.4 5.12978 0 5.73035 0H17.7418C18.3424 0 18.7427 0.4 18.7427 1V4C19.8438 4 20.7447 4.9 20.7447 6C22.9467 6 24.7485 7.8 24.7485 10ZM12.737 10H4.7294V18H12.737V10ZM20.7447 11C20.7447 10.4 20.3443 10 19.7437 10H15.7399C15.1393 10 14.7389 10.4 14.7389 11C14.7389 11.6 15.1393 12 15.7399 12H19.7437C20.3443 12 20.7447 11.6 20.7447 11Z" fill="#63D1BB"/>
</symbol></svg>